<?xml version="1.0" encoding="UTF-8"?>
<svg width="22px" height="24px" viewBox="0 0 22 24" version="1.1" xmlns="http://www.w3.org/2000/svg" xmlns:xlink="http://www.w3.org/1999/xlink">
    <!-- Generator: Sketch 52.2 (67145) - http://www.bohemiancoding.com/sketch -->
    <title>图片 copy 4</title>
    <desc>Created with Sketch.</desc>
    <g id="可云系统" stroke="none" stroke-width="1" fill="none" fill-rule="evenodd">
        <g id="图片-copy-4" transform="translate(-1.000000, 0.000000)">
            <rect id="Rectangle" fill="#D8D8D8" opacity="0" x="0" y="0" width="24" height="24"></rect>
            <g id="视频-copy" transform="translate(1.714286, 0.000000)">
                <path d="M1.32403846,0.0144230769 C0.605769231,0.0144230769 0.0201923077,0.6 0.0201923077,1.31826923 L0.0201923077,22.5951923 C0.0201923077,23.3134615 0.605769231,23.8990385 1.32403846,23.8990385 L19.5605769,23.8990385 C20.2788462,23.8990385 20.8644231,23.3134615 20.8644231,22.5951923 L20.8644231,5.22692308 L15.6548077,0.0144230769 L1.32403846,0.0144230769 Z" id="Path" fill="#FFC53D"></path>
                <path d="M7.60828246,8.57142857 L12.1140876,8.57142857 C12.5289305,8.57142857 12.8652272,8.90772523 12.8652272,9.32256818 C12.8652272,9.73741113 12.5289305,10.0737078 12.1140876,10.0737078 L7.60828246,10.0737078 C7.19343951,10.0737078 6.85714286,9.73741113 6.85714286,9.32256818 C6.85714286,8.90772523 7.19343951,8.57142857 7.60828246,8.57142857 Z M7.60828246,11.575987 L14.3669901,11.575987 C14.7815479,11.575987 15.1176135,11.9120525 15.1176135,12.3266103 C15.1176135,12.7411682 14.7815479,13.0772337 14.3669901,13.0772337 L7.60828246,13.0772337 C7.19343952,13.0772337 6.85714287,12.740937 6.85714287,12.3260941 C6.85714287,11.9112511 7.19343952,11.5749545 7.60828246,11.5749545 L7.60828246,11.575987 Z M7.60828246,14.5784804 L14.3669901,14.5784804 C14.7818331,14.5784804 15.1181297,14.914777 15.1181297,15.32962 C15.1181297,15.7444629 14.7818331,16.0807596 14.3669901,16.0807596 L7.60828246,16.0807596 C7.19343952,16.0807596 6.85714287,15.7444629 6.85714287,15.32962 C6.85714287,14.914777 7.19343952,14.5784804 7.60828246,14.5784804 Z" id="Shape" fill="#FFFFFF" fill-rule="nonzero"></path>
                <path d="M20.8644231,5.22692308 L16.9557692,5.22692308 C16.2403846,5.22692308 15.6519231,4.64134615 15.6519231,3.92307692 L15.6519231,0.0144230769 L20.8644231,5.22692308 Z" id="Path" fill="#FFEAB8"></path>
            </g>
        </g>
    </g>
</svg>