<?xml version="1.0" encoding="UTF-8"?>
<svg width="22px" height="16px" viewBox="0 0 22 16" version="1.1" xmlns="http://www.w3.org/2000/svg" xmlns:xlink="http://www.w3.org/1999/xlink">
    <!-- Generator: Sketch 52.2 (67145) - http://www.bohemiancoding.com/sketch -->
    <title>logo</title>
    <desc>Created with Sketch.</desc>
    <g id="可云系统" stroke="none" stroke-width="1" fill="none" fill-rule="evenodd">
        <g id="回收站-未选中" transform="translate(-48.000000, -25.000000)">
            <g id="Group-84-Copy">
                <g id="Group-22">
                    <g>
                        <g id="logo" transform="translate(47.000000, 18.000000)">
                            <g transform="translate(0.000000, 3.000000)">
                                <rect id="Rectangle" x="0" y="0" width="24" height="24"></rect>
                                <g id="Group" transform="translate(1.814634, 4.156098)" fill="#40A9FF">
                                    <path d="M3.61068525,8.95609756 L3.61068525,12.4097561 L16.7600465,12.4097561 L16.7600465,8.95609756 C16.7600465,8.69746665 16.9697082,8.48780488 17.2283391,8.48780488 L19.902439,8.48780488 C20.1610699,8.48780488 20.3707317,8.69746665 20.3707317,8.95609756 L20.3707317,15.2780488 C20.3707317,15.5366797 20.1610699,15.7463415 19.902439,15.7463415 L0.468292683,15.7463415 C0.209661776,15.7463415 3.16731513e-17,15.5366797 0,15.2780488 L0,8.95609756 C-3.16731513e-17,8.69746665 0.209661776,8.48780488 0.468292683,8.48780488 L3.14239257,8.48780488 C3.40102347,8.48780488 3.61068525,8.69746665 3.61068525,8.95609756 Z" id="Path"></path>
                                    <path d="M0.714508993,0.119081853 L12.5268293,7.42032827 L13.9042995,8.27421043 L12.5268293,9.16052062 L10.4590149,10.4423892 C10.3080543,10.5359719 10.117144,10.5360968 9.96606108,10.4427118 L0.222076372,4.41991258 C0.084027512,4.33458398 1.36304969e-14,4.18386283 1.38989091e-14,4.02157156 L1.41068729e-14,0.51742287 C1.41900549e-14,0.258791962 0.209661776,0.0491301867 0.468292683,0.0491301867 C0.555268324,0.0491301867 0.640525422,0.0733522866 0.714508993,0.119081853 Z" id="Rectangle" fill-opacity="0.65"></path>
                                    <path d="M19.6562227,0.119081853 C19.7302063,0.0733522866 19.8154634,0.0491301867 19.902439,0.0491301867 C20.1610699,0.0491301867 20.3707317,0.258791962 20.3707317,0.51742287 L20.3707317,4.02177582 C20.3707317,4.18395617 20.2868181,4.33459077 20.1489204,4.41995286 L10.4200791,10.4423454 C10.2688881,10.5359363 10.0777348,10.5358251 9.92665295,10.4420582 L7.86177445,9.16052062 L6.4743686,8.28112329 L7.84390244,7.42032827 L19.6562227,0.119081853 Z" id="Rectangle" fill-opacity="0.65"></path>
                                </g>
                            </g>
                        </g>
                    </g>
                </g>
            </g>
        </g>
    </g>
</svg>