<?xml version="1.0" encoding="UTF-8"?>
<svg width="12px" height="10px" viewBox="0 0 12 10" version="1.1" xmlns="http://www.w3.org/2000/svg" xmlns:xlink="http://www.w3.org/1999/xlink">
    <!-- Generator: Sketch 52.2 (67145) - http://www.bohemiancoding.com/sketch -->
    <title>Group 76</title>
    <desc>Created with Sketch.</desc>
    <g id="可云系统" stroke="none" stroke-width="1" fill="none" fill-rule="evenodd">
        <g id="回收站-未选中" transform="translate(-745.000000, -234.000000)">
            <g id="Group-20" transform="translate(47.000000, 80.000000)">
                <g id="Group-3">
                    <g id="Group-34" transform="translate(177.000000, 56.000000)">
                        <g id="Group-32">
                            <g id="间距-&lt;h8-&gt;" transform="translate(520.000000, 96.000000)">
                                <g id="Group-76">
                                    <rect id="Rectangle-37-Copy-11" x="0" y="0" width="13.9636364" height="14"></rect>
                                    <g id="rollback" transform="translate(1.677273, 2.091797)" fill="#40A9FF" fill-rule="nonzero">
                                        <path d="M9.39,3.70644531 C8.61,2.92441406 7.57363636,2.49511719 6.47181818,2.49511719 L1.90090909,2.49511719 L3.44727273,0.944726563 C3.66,0.731445313 3.66,0.385546875 3.44727273,0.170898438 C3.23454545,-0.04375 2.88954545,-0.0423828125 2.67545455,0.170898438 L0.170454545,2.68378906 C0.0681818182,2.78632813 0.0109090909,2.92578125 0.0109090909,3.07070313 C0.0109090909,3.215625 0.0681818182,3.35507813 0.170454545,3.45761719 L2.60454545,5.89804688 C2.71090909,6.0046875 2.85,6.05800781 2.99045455,6.05800781 C3.13090909,6.05800781 3.27,6.0046875 3.37636364,5.89804688 C3.58909091,5.68476563 3.58909091,5.33886719 3.37636364,5.12421875 L1.84363636,3.58886719 L6.47181818,3.58886719 C7.28318182,3.58886719 8.04545455,3.90605469 8.61818182,4.48027344 C9.19227273,5.05585938 9.50727273,5.82011719 9.50727273,6.63222656 L9.50727273,9.25722656 C9.50727273,9.559375 9.75136364,9.80410156 10.0527273,9.80410156 C10.3540909,9.80410156 10.5981818,9.559375 10.5981818,9.25722656 L10.5981818,6.63222656 C10.5995455,5.52753906 10.17,4.48847656 9.39,3.70644531 Z" id="Shape"></path>
                                    </g>
                                </g>
                            </g>
                        </g>
                    </g>
                </g>
            </g>
        </g>
    </g>
</svg>