<?xml version="1.0" encoding="UTF-8"?>
<svg width="14px" height="14px" viewBox="0 0 14 14" version="1.1" xmlns="http://www.w3.org/2000/svg" xmlns:xlink="http://www.w3.org/1999/xlink">
    <!-- Generator: Sketch 52.2 (67145) - http://www.bohemiancoding.com/sketch -->
    <title>rename</title>
    <desc>Created with Sketch.</desc>
    <g id="可云系统" stroke="none" stroke-width="1" fill="none" fill-rule="evenodd">
        <g id="操作" transform="translate(-177.000000, -76.000000)">
            <g id="间距-&lt;h50-&gt;" transform="translate(49.000000, 76.000000)">
                <g id="rename" transform="translate(128.000000, 0.000000)">
                    <rect id="Rectangle-44" x="0" y="0" width="14" height="14"></rect>
                    <g id="edit" transform="translate(0.875000, 0.875000)" fill="#40A9FF" fill-rule="nonzero">
                        <path d="M11.7578125,11.265625 L0.4921875,11.265625 C0.220117187,11.265625 0,11.4857422 0,11.7578125 C0,12.0298828 0.220117187,12.25 0.4921875,12.25 L11.7578125,12.25 C12.0298828,12.25 12.25,12.0298828 12.25,11.7578125 C12.25,11.4857422 12.0298828,11.265625 11.7578125,11.265625 Z M3.171875,9.65234375 L6.39160156,8.28925781 C6.44355469,8.26738281 6.49003906,8.2359375 6.53105469,8.19628906 L11.9615234,2.76582031 C12.3457031,2.38164063 12.3484375,1.75546875 11.9642578,1.37128906 L10.8800781,0.287109375 C10.4958984,-0.0970703125 9.86972656,-0.0943359375 9.48554688,0.28984375 L4.05507813,5.7203125 C4.01542969,5.75996094 3.98398438,5.8078125 3.96210938,5.85976563 L2.59765625,9.078125 C2.52109375,9.25859375 2.57441406,9.44042969 2.690625,9.55800781 C2.80683594,9.67558594 2.99003906,9.72890625 3.171875,9.65234375 Z M10.1814453,0.985742188 L10.1841797,0.983007813 L11.2669922,2.06582031 L11.2642578,2.06855469 L10.4166016,2.91621094 L9.33378906,1.83339844 L10.1814453,0.985742188 Z M4.82617188,6.34101562 L8.63789063,2.52929688 L9.72070313,3.61210938 L5.90898438,7.42382812 L4.03046875,8.21953125 L4.82617188,6.34101562 Z" id="Shape"></path>
                    </g>
                </g>
            </g>
        </g>
    </g>
</svg>