<?xml version="1.0" encoding="UTF-8"?>
<svg width="22px" height="24px" viewBox="0 0 22 24" version="1.1" xmlns="http://www.w3.org/2000/svg" xmlns:xlink="http://www.w3.org/1999/xlink">
    <!-- Generator: Sketch 52.2 (67145) - http://www.bohemiancoding.com/sketch -->
    <title>视频 copy 2</title>
    <desc>Created with Sketch.</desc>
    <g id="可云系统" stroke="none" stroke-width="1" fill="none" fill-rule="evenodd">
        <g id="视频-copy-2" transform="translate(-1.000000, 0.000000)">
            <rect id="Rectangle" fill="#D8D8D8" opacity="0" x="0" y="0" width="24" height="24"></rect>
            <g id="视频-copy" transform="translate(1.714286, 0.000000)">
                <path d="M1.32403846,0.0144230769 C0.605769231,0.0144230769 0.0201923077,0.6 0.0201923077,1.31826923 L0.0201923077,22.5951923 C0.0201923077,23.3134615 0.605769231,23.8990385 1.32403846,23.8990385 L19.5605769,23.8990385 C20.2788462,23.8990385 20.8644231,23.3134615 20.8644231,22.5951923 L20.8644231,5.22692308 L15.6548077,0.0144230769 L1.32403846,0.0144230769 Z" id="Path" fill="#FB673D"></path>
                <path d="M20.8644231,5.22692308 L16.9557692,5.22692308 C16.2403846,5.22692308 15.6519231,4.64134615 15.6519231,3.92307692 L15.6519231,0.0144230769 L20.8644231,5.22692308 Z" id="Path" fill="#FFB8A3"></path>
                <path d="M11.7461538,15.7096154 L5.66538462,15.7096154 C5.18942308,15.7096154 4.79711538,15.3201923 4.79711538,14.8413462 L4.79711538,9.62884615 C4.79711538,9.15288462 5.18653846,8.76057692 5.66538462,8.76057692 L11.7461538,8.76057692 C12.2221154,8.76057692 12.6144231,9.15 12.6144231,9.62884615 L12.6144231,14.8413462 C12.6144231,15.3201923 12.2221154,15.7096154 11.7461538,15.7096154 Z" id="Path" fill="#FFFFFF"></path>
                <path d="M11.1951923,12.7067308 L15.3173077,14.8298077 C15.6692308,15.0115385 16.0875,14.7548077 16.0875,14.3596154 L16.0875,10.1105769 C16.0875,9.71538462 15.6692308,9.45865385 15.3173077,9.64038462 L11.1951923,11.7663462 C10.8144231,11.9653846 10.8144231,12.5105769 11.1951923,12.7067308 Z" id="Path" fill="#FFFFFF"></path>
                <path d="M5.66538462,10.5 C5.66538462,10.9795319 6.05412199,11.3682692 6.53365385,11.3682692 C7.0131857,11.3682692 7.40192308,10.9795319 7.40192308,10.5 C7.40192308,10.0204681 7.0131857,9.63173077 6.53365385,9.63173077 C6.05412199,9.63173077 5.66538462,10.0204681 5.66538462,10.5 Z" id="Path" fill="#FB673D"></path>
            </g>
        </g>
    </g>
</svg>