<?xml version="1.0" encoding="UTF-8"?>
<svg width="10px" height="13px" viewBox="0 0 10 13" version="1.1" xmlns="http://www.w3.org/2000/svg" xmlns:xlink="http://www.w3.org/1999/xlink">
    <!-- Generator: Sketch 52.2 (67145) - http://www.bohemiancoding.com/sketch -->
    <title>新建记事</title>
    <desc>Created with Sketch.</desc>
    <g id="可云系统" stroke="none" stroke-width="1" fill="none" fill-rule="evenodd">
        <g id="Artboard" transform="translate(-128.000000, -50.000000)">
            <g id="新建记事" transform="translate(126.000000, 49.000000)">
                <rect id="Rectangle-37-Copy-23" x="0" y="0" width="14" height="14"></rect>
                <g id="filetext" transform="translate(2.000000, 1.000000)" fill="#FFFFFF" fill-rule="nonzero">
                    <path d="M9.47832031,3.83144531 L5.9515625,0.270410156 C5.89443359,0.21328125 5.83222656,0.165039063 5.76494141,0.124414063 C5.74716797,0.114257813 5.72939453,0.104101563 5.71035156,0.0952148438 C5.69892578,0.0888671875 5.68623047,0.0837890625 5.67480469,0.0787109375 C5.56054688,0.0279296875 5.43486328,8.8817842e-16 5.30664063,8.8817842e-16 L0.926757812,8.8817842e-16 C0.421484375,8.8817842e-16 0,0.408789063 0,0.9140625 L0,12.0859375 C0,12.5912109 0.421484375,13 0.926757812,13 L8.8359375,13 C9.34121094,13 9.73730469,12.5912109 9.73730469,12.0859375 L9.73730469,4.47509766 C9.73730469,4.23388672 9.6484375,4.00283203 9.47832031,3.83144531 Z M5.77636719,1.4015625 L8.32558594,3.9609375 L5.77636719,3.9609375 L5.77636719,1.4015625 Z M8.82324219,12.0859375 L0.9140625,12.0859375 L0.9140625,0.9140625 L4.86230469,0.9140625 L4.86230469,3.9609375 C4.86230469,4.46621094 5.28378906,4.875 5.7890625,4.875 L8.82324219,4.875 L8.82324219,12.0859375 Z M5.7890625,6.14453125 C5.7890625,5.89189453 5.58466797,5.6875 5.33203125,5.6875 L2.08203125,5.6875 C1.82939453,5.6875 1.625,5.89189453 1.625,6.14453125 C1.625,6.39716797 1.82939453,6.6015625 2.08203125,6.6015625 L5.33203125,6.6015625 C5.58466797,6.6015625 5.7890625,6.39716797 5.7890625,6.14453125 Z M8.2265625,8.17578125 C8.2265625,7.92314453 8.02216797,7.71875 7.76953125,7.71875 L2.08203125,7.71875 C1.82939453,7.71875 1.625,7.92314453 1.625,8.17578125 C1.625,8.42841797 1.82939453,8.6328125 2.08203125,8.6328125 L7.76953125,8.6328125 C8.02216797,8.6328125 8.2265625,8.42841797 8.2265625,8.17578125 Z M6.6015625,10.2070313 C6.6015625,9.95439453 6.39716797,9.75 6.14453125,9.75 L2.08203125,9.75 C1.82939453,9.75 1.625,9.95439453 1.625,10.2070313 C1.625,10.459668 1.82939453,10.6640625 2.08203125,10.6640625 L6.14453125,10.6640625 C6.39716797,10.6640625 6.6015625,10.459668 6.6015625,10.2070313 Z" id="Shape"></path>
                </g>
            </g>
        </g>
    </g>
</svg>