<?xml version="1.0" encoding="UTF-8"?>
<svg width="12px" height="13px" viewBox="0 0 12 13" version="1.1" xmlns="http://www.w3.org/2000/svg" xmlns:xlink="http://www.w3.org/1999/xlink">
    <!-- Generator: Sketch 52.2 (67145) - http://www.bohemiancoding.com/sketch -->
    <title>新建记事本</title>
    <desc>Created with Sketch.</desc>
    <g id="可云系统" stroke="none" stroke-width="1" fill="none" fill-rule="evenodd">
        <g id="Artboard" transform="translate(-83.000000, -50.000000)">
            <g id="新建记事本" transform="translate(82.000000, 49.000000)">
                <rect id="Rectangle" fill="#000000" opacity="0" x="0" y="0" width="14" height="14"></rect>
                <path d="M11.6697134,13.922991 L2.81132075,13.922991 C2.49315575,13.922991 1.91793432,13.7848898 1.91793432,13.1159539 L1.91793432,11.4837471 L1.46640987,11.4837471 C1.22667624,11.4837471 1.03238232,11.3066304 1.03238232,11.0884356 C1.03238232,10.8698112 1.22667624,10.693296 1.46640987,10.693296 L1.91863072,10.693296 L1.91863072,9.07131567 L1.46640987,9.07131567 C1.22667624,9.07131567 1.03238232,8.89480049 1.03238232,8.67548854 C1.03238232,8.45798127 1.22667624,8.28077859 1.46640987,8.28077859 L1.91863072,8.28077859 L1.91863072,6.64676707 L1.47555004,6.64676707 C1.23581641,6.64676707 1.04143544,6.47016595 1.04143544,6.250854 C1.04143544,6.03274517 1.23581641,5.85554249 1.47546299,5.85554249 L1.91854367,5.85554249 L1.91854367,4.23115595 L1.43402755,4.23115595 C1.19429392,4.23115595 1,4.05403921 1,3.83532882 C1,3.61721999 1.19429392,3.44001731 1.43402755,3.44001731 L1.91863072,3.44001731 L1.91863072,1.83333384 C1.91863072,1.42908486 2.19588257,1 2.83334421,1 L11.6698875,1 C12.4051925,1 13,1.5423502 13,2.21197352 L13,12.7123925 C12.9992166,13.3813283 12.4045831,13.9230769 11.6698875,13.9230769 L11.6697134,13.922991 Z M2.80679419,1.80841203 C2.80537759,1.81664401 2.80470756,1.82498433 2.80479206,1.83333384 L2.80479206,3.43993137 L3.23498945,3.43993137 C3.47472307,3.43993137 3.669017,3.61653249 3.669017,3.83524288 C3.669017,4.05395327 3.47472307,4.23107001 3.23498945,4.23107001 L2.80479206,4.23107001 L2.80479206,5.85614406 L3.27642489,5.85614406 C3.51615852,5.85614406 3.71053949,6.03334674 3.71053949,6.25145556 C3.71053949,6.47025189 3.51615852,6.64736863 3.27642489,6.64736863 L2.80479206,6.64736863 L2.80479206,8.28146609 L3.26676242,8.28146609 C3.506409,8.28146609 3.70078997,8.45858283 3.70078997,8.6760901 C3.70078997,8.89540205 3.506409,9.07200317 3.26676242,9.07200317 L2.80461796,9.07200317 L2.80461796,10.6938975 L3.26658832,10.6938975 C3.5062349,10.6938975 3.70061587,10.8704127 3.70061587,11.089209 C3.70061587,11.3072319 3.5062349,11.4844346 3.26658832,11.4844346 L2.80461796,11.4844346 L2.80461796,13.1165555 L9.8973907,13.1165555 L9.8973907,1.80781047 L2.83247372,1.80781047 C2.82220191,1.80781047 2.81375813,1.80781047 2.8066201,1.80841203 L2.80679419,1.80841203 Z M12.1136646,2.21197352 C12.1136646,1.98879439 11.9141477,1.80781047 11.6692781,1.80781047 L10.7829427,1.80781047 L10.7829427,13.1165555 L11.6692781,13.1165555 C11.9141477,13.1165555 12.1136646,12.9355716 12.1136646,12.7123925 L12.1136646,2.21197352 Z" id="Shape" fill="#FFFFFF" fill-rule="nonzero"></path>
            </g>
        </g>
    </g>
</svg>