<?xml version="1.0" encoding="UTF-8"?>
<svg width="23px" height="20px" viewBox="0 0 23 20" version="1.1" xmlns="http://www.w3.org/2000/svg" xmlns:xlink="http://www.w3.org/1999/xlink">
    <!-- Generator: Sketch 52.2 (67145) - http://www.bohemiancoding.com/sketch -->
    <title>Group</title>
    <desc>Created with Sketch.</desc>
    <g id="可云系统" stroke="none" stroke-width="1" fill="none" fill-rule="evenodd">
        <g id="Group" transform="translate(-1.000000, -3.000000)">
            <rect id="Rectangle" fill="#D8D8D8" opacity="0" x="0" y="0" width="24" height="24"></rect>
            <g id="文件夹" transform="translate(1.500000, 3.000000)">
                <path d="M21.7030296,15.7212658 L9.54382031e-05,15.7212658 L9.54382031e-05,2.72733793 L20.0880931,2.72733793 C20.9813245,2.72733793 21.7062659,3.45227936 21.7062659,4.34551077 L21.7062659,15.7212658 L21.7030296,15.7212658 Z M13.5636202,2.72733793 C13.5636202,1.22890988 12.3499905,0.0152802466 10.8515625,0.0152802466 L9.54382031e-05,0.0152802466 L9.54382031e-05,2.72733793 L13.5636202,2.72733793 Z" id="Shape" fill="#CE9F06" fill-rule="nonzero"></path>
                <polygon id="Path" fill="#FFFFFF" points="2.71215312 12.099795 2.71215312 3.96362198 18.9909719 3.96362198 18.9909719 12.099795 2.71215312 12.099795"></polygon>
                <path d="M21.7030296,17.4397654 L21.7030296,6.90222385 C21.7030296,6.154628 21.0945966,5.54619501 20.3470007,5.54619501 L1.35612428,5.54619501 C0.608528426,5.54619501 9.54382031e-05,6.154628 9.54382031e-05,6.90222385 L9.54382031e-05,17.436529 C9.54382031e-05,18.3588876 0.74769129,19.1097198 1.67328615,19.1097198 L20.0330752,19.1097198 C20.9554337,19.1129561 21.7030296,18.3621239 21.7030296,17.4397654 Z" id="Path" fill="#FFCD2C"></path>
            </g>
        </g>
    </g>
</svg>