<?xml version="1.0" encoding="UTF-8"?>
<svg width="22px" height="24px" viewBox="0 0 22 24" version="1.1" xmlns="http://www.w3.org/2000/svg" xmlns:xlink="http://www.w3.org/1999/xlink">
    <!-- Generator: Sketch 52.2 (67145) - http://www.bohemiancoding.com/sketch -->
    <title>图片 copy 3</title>
    <desc>Created with Sketch.</desc>
    <g id="可云系统" stroke="none" stroke-width="1" fill="none" fill-rule="evenodd">
        <g id="图片-copy-3" transform="translate(-1.000000, 0.000000)">
            <rect id="Rectangle" fill="#D8D8D8" opacity="0" x="0" y="0" width="24" height="24"></rect>
            <g id="视频-copy" transform="translate(1.714286, 0.000000)">
                <path d="M1.32403846,0.0144230769 C0.605769231,0.0144230769 0.0201923077,0.6 0.0201923077,1.31826923 L0.0201923077,22.5951923 C0.0201923077,23.3134615 0.605769231,23.8990385 1.32403846,23.8990385 L19.5605769,23.8990385 C20.2788462,23.8990385 20.8644231,23.3134615 20.8644231,22.5951923 L20.8644231,5.22692308 L15.6548077,0.0144230769 L1.32403846,0.0144230769 Z" id="Path" fill="#7DD14D"></path>
                <g id="图片" transform="translate(5.010989, 6.857143)">
                    <rect id="Rectangle" fill="#000000" opacity="0" x="0" y="0" width="10.2857143" height="10.2857143"></rect>
                    <path d="M9.2967033,0.197802201 L0.989010984,0.197802201 C0.552038442,0.197802206 0.197802206,0.552038442 0.197802201,0.989010984 L0.197802201,9.2967033 C0.197802206,9.73367584 0.552038442,10.0879121 0.989010984,10.0879121 L9.2967033,10.0879121 C9.73367584,10.0879121 10.0879121,9.73367584 10.0879121,9.2967033 L10.0879121,0.989010984 C10.0879121,0.552038442 9.73367584,0.197802206 9.2967033,0.197802201 Z M0.989010984,7.51648351 C1.34828171,7.00682752 1.8840059,6.64873819 2.49230769,6.51164835 C3.23604396,6.36131868 4.07472528,6.60263736 4.96879121,7.21978022 C4.76476856,7.89440035 4.66341423,8.59587902 4.66813187,9.30065934 L0.989010984,9.30065934 L0.989010984,7.51648351 Z M5.4632967,9.2967033 C5.4632967,8.58065934 5.58197802,7.00615385 6.58285714,5.87868132 C7.29382095,5.12260672 8.26184554,4.65976115 9.2967033,4.5810989 L9.2967033,9.2967033 L5.4632967,9.2967033 Z M3.05010989,4.62461539 C2.17616479,4.62461539 1.46769231,3.9161429 1.46769231,3.0421978 C1.46769231,2.1682527 2.17616479,1.45978021 3.05010989,1.45978021 C3.924055,1.45978021 4.63252748,2.1682527 4.63252748,3.0421978 C4.63252748,3.9161429 3.924055,4.62461539 3.05010989,4.62461539 Z" id="Shape" fill="#FFFFFF" fill-rule="nonzero"></path>
                </g>
                <path d="M20.8644231,5.22692308 L16.9557692,5.22692308 C16.2403846,5.22692308 15.6519231,4.64134615 15.6519231,3.92307692 L15.6519231,0.0144230769 L20.8644231,5.22692308 Z" id="Path" fill="#BDF79C"></path>
            </g>
        </g>
    </g>
</svg>