<?xml version="1.0" encoding="UTF-8"?>
<svg width="14px" height="14px" viewBox="0 0 14 14" version="1.1" xmlns="http://www.w3.org/2000/svg" xmlns:xlink="http://www.w3.org/1999/xlink">
    <!-- Generator: Sketch 52.2 (67145) - http://www.bohemiancoding.com/sketch -->
    <title>move</title>
    <desc>Created with Sketch.</desc>
    <g id="可云系统" stroke="none" stroke-width="1" fill="none" fill-rule="evenodd">
        <g id="操作" transform="translate(-241.000000, -76.000000)">
            <g id="间距-&lt;h50-&gt;" transform="translate(49.000000, 76.000000)">
                <g id="move" transform="translate(192.000000, 0.000000)">
                    <rect id="Rectangle" fill="#000000" opacity="0" x="0" y="0" width="14" height="14"></rect>
                    <path d="M13.9957344,7.16743945 C13.9994395,7.0657207 13.9639473,6.96338672 13.8869473,6.88638672 L12.0696133,5.07394727 C11.9215605,4.92638672 11.680334,4.92638672 11.5317344,5.07394727 C11.3836133,5.222 11.3836133,5.46266602 11.5317344,5.61022656 L12.7362266,6.81212109 L9.57712109,6.81212109 C9.37356055,6.81212109 9.20877344,6.97633398 9.20877344,7.17926563 C9.20877344,7.38219727 9.37356055,7.54656055 9.57712109,7.54656055 L12.7884395,7.54656055 L11.5747871,8.757 C11.5055247,8.82581488 11.4665757,8.91941687 11.4665757,9.01705273 C11.4665757,9.1146886 11.5055247,9.20829059 11.5747871,9.27710547 C11.7185705,9.4208573 11.951656,9.4208573 12.0954395,9.27710547 L13.8562266,7.52066602 C13.9025605,7.47438672 13.9283184,7.41782617 13.9451211,7.35861328 C13.976334,7.30422656 13.9989473,7.24556055 13.9989473,7.17933398 C13.9984004,7.17443945 13.9962129,7.17122656 13.995666,7.16743945 L13.9957344,7.16743945 Z M4.42296094,6.80021289 L1.21154688,6.80021289 L2.42519922,5.58977344 C2.49446171,5.5210615 2.53341959,5.42753706 2.53341959,5.32997363 C2.53341959,5.2324102 2.49446171,5.13888576 2.42519922,5.07017383 C2.3562781,5.0009022 2.26259039,4.96195621 2.16487305,4.96195621 C2.06715571,4.96195621 1.97346799,5.0009022 1.90454688,5.07017383 L0.143773438,6.82659961 C0.0974394531,6.87294727 0.0716132813,6.92950781 0.0548789063,6.98873437 C0.0236660156,7.04256055 0.00105273438,7.10122656 0.00105273438,7.16743945 C0.00105273438,7.17177344 0.0032265625,7.175 0.00378710938,7.17878711 C-0.000757260056,7.28370631 0.0386654475,7.38576632 0.112560547,7.46038672 L1.92982617,9.27226563 C2.07794727,9.42038672 2.31917383,9.42038672 2.46777344,9.27226563 C2.61582556,9.12416607 2.61582556,8.88409956 2.46777344,8.736 L1.26322656,7.53410547 L4.42230469,7.53410547 C4.62593359,7.53410547 4.79065234,7.36994727 4.79065234,7.16694727 C4.79065234,6.96394727 4.62642578,6.80022656 4.42293359,6.80022656 L4.42296094,6.80021289 Z M7.33493359,0.326347656 C7.29293359,0.284347656 7.24175977,0.257960938 7.18898633,0.240679687 C7.13354688,0.207839844 7.07321289,0.1841875 7.00425195,0.1841875 C6.99725195,0.1841875 6.99298633,0.187400391 6.98598633,0.188453125 C6.8830918,0.183066406 6.7780918,0.217013672 6.69954688,0.295626953 L4.88110547,2.11350781 C4.73354492,2.261 4.73354492,2.50326563 4.88110547,2.65082617 C4.9524202,2.72217679 5.04916528,2.76226417 5.15004492,2.76226417 C5.25092456,2.76226417 5.34766964,2.72217679 5.41898438,2.65082617 L6.63537109,1.43443945 L6.63537109,4.60543945 C6.63525806,4.70325951 6.67410527,4.79709744 6.74332712,4.86621409 C6.81254896,4.93533075 6.90644585,4.97403523 7.00426562,4.97377344 C7.10205259,4.9739441 7.19589093,4.93520858 7.26508429,4.86611011 C7.33427766,4.79701165 7.37314193,4.70322656 7.37310547,4.60543945 L7.37310547,1.40594727 L8.575,2.60777344 C8.71877344,2.75205273 8.95138672,2.75156055 9.09573437,2.60722656 C9.16501368,2.53819285 9.2039551,2.44441551 9.2039551,2.34661328 C9.2039551,2.24881105 9.16501368,2.15503372 9.09573437,2.086 L7.33494727,0.326197266 L7.33493359,0.326347656 Z M8.575,11.3916797 L7.36134766,12.6054004 L7.36134766,9.39449219 C7.36111371,9.19096176 7.19596995,9.02613626 6.99243945,9.02629492 C6.89468092,9.02612794 6.80086893,9.06484444 6.73168286,9.13390997 C6.66249679,9.2029755 6.62361677,9.29671984 6.62361328,9.39447852 L6.62361328,12.5542949 L5.41905273,11.3497344 C5.271,11.2010527 5.02977344,11.2010527 4.88117383,11.3491738 C4.73305273,11.4972266 4.73305273,11.7390684 4.88117383,11.8865605 L6.69843945,13.7043867 C6.77656055,13.7819473 6.87882617,13.8169473 6.98005273,13.8131738 C6.98438672,13.8131738 6.98761328,13.8158262 6.99194727,13.8158262 C7.05866602,13.8158262 7.11738672,13.7927207 7.17177344,13.7614395 C7.231,13.745334 7.28805273,13.7194395 7.33487891,13.6726133 L9.09517383,11.9123867 C9.16444894,11.8433535 9.20338769,11.7495791 9.20338769,11.6517803 C9.20338769,11.5539814 9.16444894,11.460207 9.09517383,11.3911738 C9.02622426,11.3220806 8.93259574,11.2832931 8.83498469,11.2833855 C8.73737365,11.2834779 8.6438187,11.3224424 8.575,11.391666 L8.575,11.3916797 Z" id="Shape" fill="#40A9FF" fill-rule="nonzero"></path>
                </g>
            </g>
        </g>
    </g>
</svg>