<?xml version="1.0" encoding="UTF-8"?>
<svg width="22px" height="24px" viewBox="0 0 22 24" version="1.1" xmlns="http://www.w3.org/2000/svg" xmlns:xlink="http://www.w3.org/1999/xlink">
    <!-- Generator: Sketch 52.2 (67145) - http://www.bohemiancoding.com/sketch -->
    <title>图片 copy 5</title>
    <desc>Created with Sketch.</desc>
    <g id="可云系统" stroke="none" stroke-width="1" fill="none" fill-rule="evenodd">
        <g id="图片-copy-5" transform="translate(-1.000000, 0.000000)">
            <rect id="Rectangle" fill="#D8D8D8" opacity="0" x="0" y="0" width="24" height="24"></rect>
            <g id="视频-copy" transform="translate(1.714286, 0.000000)">
                <path d="M1.32403846,0.0144230769 C0.605769231,0.0144230769 0.0201923077,0.6 0.0201923077,1.31826923 L0.0201923077,22.5951923 C0.0201923077,23.3134615 0.605769231,23.8990385 1.32403846,23.8990385 L19.5605769,23.8990385 C20.2788462,23.8990385 20.8644231,23.3134615 20.8644231,22.5951923 L20.8644231,5.22692308 L15.6548077,0.0144230769 L1.32403846,0.0144230769 Z" id="Path" fill="#3DA2FF"></path>
                <g id="音符" transform="translate(3.428571, 6.857143)">
                    <rect id="Rectangle" fill="#000000" opacity="0" x="0" y="0" width="12" height="12"></rect>
                    <path d="M11.2348708,1.14458797 C11.2349787,0.997459723 11.1693232,0.858102211 11.056096,0.76498534 C10.9429167,0.671748551 10.7941815,0.634669699 10.6506868,0.664085754 L4.51107749,1.91837534 C4.28419132,1.96472391 4.12106592,2.16532391 4.12088604,2.39815805 L4.11702465,7.99508733 C3.77578402,7.79894831 3.36766472,7.69104547 2.92879827,7.69104547 C2.92813871,7.69104547 2.92759908,7.69104547 2.92695152,7.69104547 C2.36738691,7.69104547 1.83721437,7.86727799 1.43399974,8.20105969 C1.00301195,8.55786578 0.765429035,8.99327856 0.765129234,9.51325801 C0.764481668,10.5490078 1.73397635,11.3457716 2.92625599,11.3457716 C2.92690356,11.3457716 2.92744318,11.3457716 2.92810274,11.3457716 C3.48778727,11.3457716 3.98799213,11.2056226 4.39126671,10.8718409 C4.82231446,10.5150828 5.03016954,10.0613824 5.03016954,9.5415948 L5.03016954,9.54881391 L5.03016954,9.55243545 L5.03016954,9.55422224 L5.06351893,4.78241753 L10.2436948,3.72972326 L10.249247,6.6301008 C9.90890577,6.43560468 9.51012813,6.35097805 9.07321636,6.35097805 C9.07256879,6.35097805 9.07190925,6.35097805 9.0712497,6.35097805 C8.51168508,6.35097805 7.98151254,6.5050256 7.57829791,6.83875934 C7.14720219,7.19550546 6.90960729,7.64195078 6.90930749,8.1619782 C6.90864793,9.19772796 7.87820258,10.0057041 9.07065009,10.0057041 C9.07118973,10.0057041 9.07160944,10.0057041 9.07213709,10.0057041 C10.2091222,10.0057041 11.1459151,9.26069726 11.2302899,8.29139445 C11.2311053,8.27985826 11.2332638,8.22703409 11.231609,8.09274913 L11.2348708,1.14458797 Z M3.80219011,10.1178641 C3.57286959,10.3076954 3.26249603,10.3711803 2.92809075,10.3711803 C2.927731,10.3711803 2.92731128,10.3711803 2.92695152,10.3711803 C2.28300012,10.3711803 1.73920481,9.99980413 1.73949262,9.51271837 C1.73961254,9.29084481 1.85106498,9.10182895 2.05319993,8.93449441 C2.28246049,8.74471109 2.59272613,8.6656367 2.92695152,8.6656367 C2.92729929,8.6656367 2.927731,8.6656367 2.92809075,8.6656367 C3.57228199,8.6656367 4.11625717,9.05266229 4.11595738,9.53985598 C4.11577751,9.7616456 4.00438502,9.95052954 3.80219011,10.1178641 Z M5.09420613,3.90836613 L5.09497362,2.79898629 L10.2600877,1.7438097 L10.2593202,2.85524014 L5.09420613,3.90836613 Z M9.07219705,9.03112489 C9.07190925,9.03112489 9.07160945,9.03112489 9.07130965,9.03112489 C8.42723832,9.03112489 7.88337107,8.63753974 7.88368286,8.15039404 C7.88379079,7.92850847 7.99525521,7.7505851 8.19743812,7.58329853 C8.42669869,7.3935152 8.73696432,7.32558125 9.07130964,7.32558125 C9.07171736,7.32558125 9.07213707,7.32558125 9.07255679,7.32558125 C9.68596491,7.32558125 10.2685899,7.64560828 10.2685899,8.10195887 L10.2685899,8.24020114 C10.1467765,8.69614402 9.68522142,9.03112489 9.07219705,9.03112489 Z" id="Shape" fill="#FFFFFF" fill-rule="nonzero"></path>
                </g>
                <path d="M20.8644231,5.22692308 L16.9557692,5.22692308 C16.2403846,5.22692308 15.6519231,4.64134615 15.6519231,3.92307692 L15.6519231,0.0144230769 L20.8644231,5.22692308 Z" id="Path" fill="#AED8FF"></path>
            </g>
        </g>
    </g>
</svg>