<?xml version="1.0" encoding="UTF-8"?>
<svg width="11px" height="12px" viewBox="0 0 11 12" version="1.1" xmlns="http://www.w3.org/2000/svg" xmlns:xlink="http://www.w3.org/1999/xlink">
    <!-- Generator: Sketch 52.2 (67145) - http://www.bohemiancoding.com/sketch -->
    <title>share</title>
    <desc>Created with Sketch.</desc>
    <g id="可云系统" stroke="none" stroke-width="1" fill="none" fill-rule="evenodd">
        <g id="操作" transform="translate(-51.000000, -77.000000)">
            <g id="间距-&lt;h50-&gt;" transform="translate(49.000000, 76.000000)">
                <g id="share">
                    <rect id="Rectangle" fill="#000000" opacity="0" x="0" y="0" width="14" height="14"></rect>
                    <path d="M4.22421875,9.70351563 C4.93789062,9.70351563 5.57421875,9.36484375 5.98203125,8.83984375 L8.890625,10.5015625 C8.825,10.69375 8.78867187,10.8988281 8.78867187,11.1121094 C8.78867187,12.1527344 9.6359375,13 10.6765625,13 C11.7171875,13 12.5644531,12.1527344 12.5644531,11.1121094 C12.5644531,10.0714844 11.7171875,9.22421875 10.6765625,9.22421875 C10.1550781,9.22421875 9.6828125,9.43632812 9.340625,9.7796875 L6.36523438,8.07929688 C6.41914062,7.88828125 6.4484375,7.68671875 6.4484375,7.478125 C6.4484375,7.12773438 6.36640625,6.79609375 6.22226563,6.50078125 L9.43789063,3.8921875 C9.70507812,4.09023437 10.0355469,4.20742187 10.3917969,4.20742187 C11.2765625,4.20742187 11.9960938,3.48789062 11.9960938,2.603125 C11.9960938,1.71835937 11.2765625,1 10.3929687,1 C9.509375,1 8.78867188,1.71953125 8.78867188,2.60429688 C8.78867188,2.8234375 8.83320313,3.03320312 8.91289063,3.22304687 L5.7078125,5.8234375 C5.3140625,5.46953125 4.79375,5.25390625 4.22421875,5.25390625 C2.99726562,5.25390625 2,6.25234375 2,7.478125 C2,8.70390625 2.99726562,9.70351562 4.22421875,9.70351563 Z M10.6765625,10.075 C11.2484375,10.075 11.7136719,10.5402344 11.7136719,11.1121094 C11.7136719,11.6839844 11.2484375,12.1492188 10.6765625,12.1492188 C10.1046875,12.1492188 9.63945313,11.6839844 9.63945313,11.1121094 C9.63945313,10.5402344 10.1046875,10.075 10.6765625,10.075 Z M10.3929688,1.85078125 C10.8078125,1.85078125 11.1464844,2.18828125 11.1464844,2.60429687 C11.1464844,3.0203125 10.8089844,3.3578125 10.3929688,3.3578125 C9.978125,3.3578125 9.63945313,3.0203125 9.63945313,2.60429687 C9.63945313,2.18828125 9.97695313,1.85078125 10.3929688,1.85078125 Z M4.22421875,6.1046875 C4.98125,6.1046875 5.59765625,6.72109375 5.59765625,7.478125 C5.59765625,8.23515625 4.98125,8.8515625 4.22421875,8.8515625 C3.4671875,8.8515625 2.85078125,8.23515625 2.85078125,7.478125 C2.85078125,6.72109375 3.46601563,6.1046875 4.22421875,6.1046875 Z" id="Shape" fill="#40A9FF" fill-rule="nonzero"></path>
                </g>
            </g>
        </g>
    </g>
</svg>