<?xml version="1.0" encoding="UTF-8"?>
<svg width="14px" height="14px" viewBox="0 0 14 14" version="1.1" xmlns="http://www.w3.org/2000/svg" xmlns:xlink="http://www.w3.org/1999/xlink">
    <!-- Generator: Sketch 52.2 (67145) - http://www.bohemiancoding.com/sketch -->
    <title>删除记事本</title>
    <desc>Created with Sketch.</desc>
    <defs>
        <path d="M1.62831269,12.1251083 C1.5951766,12.0973306 1.56144879,12.0612195 1.52831269,12.0251083 C1.56499907,12.0612195 1.5951766,12.0973306 1.62831269,12.1251083 Z M1.49613343,12.0503403 C1.46191121,12.0181725 1.42813343,11.9860046 1.39613343,11.9503403 C1.42768897,11.9860046 1.46191121,12.0181725 1.49613343,12.0503403 Z M12.1322937,1.8927002 C12.0393677,1.79977417 11.9042511,1.74797057 11.77314,1.74797057 L9.252388,1.74797057 L9.252388,0.962638852 C9.252388,0.431518555 8.82086945,0 8.28974915,0 L3.98684692,0 C3.45572663,0 3.02420807,0.431518555 3.02420807,0.962638852 L3.02420807,1.74797057 L0.490638736,1.74797059 C0.221740723,1.74797059 0.00170898438,1.96640016 0.00170898438,2.23690034 C0.00170898438,2.50740052 0.220138557,2.72583009 0.490638736,2.72583009 L0.922157291,2.72583009 L0.922157291,11.2347031 C0.922157291,11.7658234 1.35367585,12.1973419 1.88479614,12.1973419 L10.5290527,12.1973419 C11.060173,12.1973419 11.4916916,11.7658234 11.4916916,11.2347031 L11.4916916,2.72583008 L11.7728729,2.72583008 C12.0417709,2.72583008 12.2754211,2.50740051 12.2754211,2.23690033 C12.2756882,2.10712433 12.2252197,1.98562622 12.1322937,1.8927002 Z M3.98524476,0.965576172 L8.28547669,0.965576172 L8.28547669,1.75624847 L3.98524476,1.75624847 L3.98524476,0.965576172 Z M10.5277176,11.2333679 L1.88479614,11.2333679 L1.88479614,2.72583008 L3.13021851,2.72583008 L10.5274506,2.72583008 L10.5274506,11.2333679 L10.5277176,11.2333679 Z M6.13188934,4.36431885 C5.86005401,4.36431885 5.64028931,4.58408356 5.64028931,4.85591888 L5.64028931,9.41703796 C5.64028931,9.68887329 5.86005402,9.90863799 6.13188934,9.90863799 C6.40372466,9.90863799 6.62348937,9.68887328 6.62348937,9.41703796 L6.62348939,4.85591888 C6.62348939,4.58435059 6.40372467,4.36431885 6.13188934,4.36431885 Z M3.46907806,4.36431885 C3.19724273,4.36431885 2.97747803,4.58408356 2.97747803,4.85591888 L2.97747803,9.41703796 C2.97747803,9.68887329 3.19724274,9.90863799 3.46907806,9.90863799 C3.74091338,9.90863799 3.96067809,9.68887328 3.96067809,9.41703796 L3.96067811,4.85591888 C3.96067811,4.58435059 3.74064637,4.36431885 3.46907806,4.36431885 Z M8.76746369,4.36431885 C8.49562835,4.36431885 8.27586365,4.58408356 8.27586365,4.85591888 L8.27586365,9.41703796 C8.27586365,9.68887329 8.49562837,9.90863799 8.76746369,9.90863799 C9.03929901,9.90863799 9.25906372,9.68887328 9.25906372,9.41703796 L9.25906372,4.85591888 C9.25906372,4.58435059 9.03929901,4.36431885 8.76746369,4.36431885 Z" id="path-1"></path>
    </defs>
    <g id="可云系统" stroke="none" stroke-width="1" fill="none" fill-rule="evenodd">
        <g id="记事本" transform="translate(-1274.000000, -125.000000)">
            <g id="Group-7" transform="translate(209.000000, 116.000000)">
                <g id="间距-&lt;h8-&gt;" transform="translate(812.000000, 0.000000)">
                    <g id="Button/Secondary/Icon/Medium" transform="translate(241.000000, 0.000000)">
                        <g id="Button/_Resources/Icon/Delete" transform="translate(12.000000, 9.000000)">
                            <rect id="Rectangle-48-Copy-13" x="0" y="0" width="14" height="14"></rect>
                            <g id="delete" stroke-width="1" fill-rule="evenodd" transform="translate(0.861328, 0.888672)">
                                <g id="Button/_Color/Title">
                                    <mask id="mask-2" fill="white">
                                        <use xlink:href="#path-1"></use>
                                    </mask>
                                    <g id="Mask" fill-rule="nonzero"></g>
                                    <g id="Button/_Resources/Color/Black" mask="url(#mask-2)" fill="#000000" fill-opacity="0.65">
                                        <g transform="translate(-21.391390, -28.305339)" id="Oval-Copy-4">
                                            <circle cx="35" cy="35" r="35"></circle>
                                        </g>
                                    </g>
                                </g>
                            </g>
                        </g>
                    </g>
                </g>
            </g>
        </g>
    </g>
</svg>